<svg width="100" height="100" viewBox="0 0 100 100" fill="none" xmlns="http://www.w3.org/2000/svg">
<rect x="21.5626" y="22.5" width="56.6519" height="57.4555" fill="#F7FEFE"/>
<path d="M85.3557 14.6453C78.3635 7.65242 69.4537 2.89027 59.7556 0.960803C50.0563 -0.968664 40.0038 0.021909 30.8663 3.80617C21.7288 7.59042 13.9207 13.9994 8.42698 22.2205C2.93233 30.4432 0 40.1098 0 49.9991C0 59.8884 2.93251 69.5563 8.42698 77.7777C13.9209 86.0004 21.7299 92.4088 30.8663 96.1938C40.0028 99.9779 50.0556 100.968 59.7556 99.0385C69.4542 97.1097 78.3646 92.3476 85.3557 85.3547C94.7321 75.9775 100 63.26 100 49.9993C100 36.7382 94.7321 24.0207 85.3557 14.6439V14.6453ZM71.206 74.0043L49.9953 52.8346L28.7845 74.0043C28.4427 74.4828 27.9084 74.787 27.3225 74.8351C26.7365 74.8832 26.159 74.6719 25.7432 74.2561C25.3275 73.8404 25.1161 73.2628 25.1642 72.6769C25.2124 72.0909 25.5165 71.5566 25.995 71.2148L47.1647 50.0041L25.995 28.7933C25.4265 27.9981 25.5165 26.9078 26.2078 26.2165C26.899 25.5253 27.9893 25.4353 28.7846 26.0038L49.9953 47.1734L71.2061 26.0038C71.5479 25.5253 72.0822 25.2211 72.6681 25.173C73.2541 25.1249 73.8316 25.3362 74.2474 25.752C74.6631 26.1677 74.8745 26.7453 74.8263 27.3312C74.7782 27.9172 74.4741 28.4515 73.9956 28.7933L52.8259 50.004L73.9956 71.2148C74.4741 71.5566 74.7782 72.0909 74.8263 72.6768C74.8745 73.2628 74.6631 73.8403 74.2474 74.2561C73.8316 74.6718 73.2541 74.8832 72.6681 74.8351C72.0822 74.7869 71.5479 74.4828 71.2061 74.0043L71.206 74.0043Z" fill="#FB9084"/>
</svg>
