<svg width="66" height="48" viewBox="0 0 66 48" fill="none" xmlns="http://www.w3.org/2000/svg">
<path d="M0 24C0 22.8954 0.895431 22 2 22H64C65.1046 22 66 22.8954 66 24C66 25.1046 65.1046 26 64 26H2C0.895429 26 0 25.1046 0 24Z" fill="#F7FEFE"/>
<path d="M0 2C0 0.895431 0.895431 0 2 0H64C65.1046 0 66 0.895431 66 2C66 3.10457 65.1046 4 64 4H2C0.895429 4 0 3.10457 0 2Z" fill="#F7FEFE"/>
<path d="M0 46C0 44.8954 0.895431 44 2 44H64C65.1046 44 66 44.8954 66 46C66 47.1046 65.1046 48 64 48H2C0.895429 48 0 47.1046 0 46Z" fill="#F7FEFE"/>
</svg>
