<svg width="99" height="100" viewBox="0 0 99 100" fill="none" xmlns="http://www.w3.org/2000/svg">
<rect x="21.3005" y="21.2869" width="55.9635" height="57.4344" fill="#F7FEFE"/>
<path d="M49.3929 0C36.2929 0 23.7299 5.26594 14.4671 14.6397C5.20385 24.0127 0 36.7263 0 49.9821C0 63.238 5.20385 75.9512 14.4671 85.3246C23.7296 94.6983 36.2933 99.9643 49.3929 99.9643C62.4925 99.9643 75.0558 94.6983 84.3186 85.3246C93.5819 75.9516 98.7857 63.238 98.7857 49.9821C98.7857 36.7263 93.5819 24.013 84.3186 14.6397C75.0561 5.26594 62.4925 0 49.3929 0ZM72.5491 53.111H72.8061L72.9743 53.1612L73.1224 53.2309L73.2706 53.3111L73.4091 53.4108L73.5276 53.521L73.6461 53.6409L73.7447 53.7706L73.8432 53.9108L73.9224 54.0607L73.9913 54.2204V54.3801V54.3808C73.9941 54.4372 73.9941 54.4937 73.9913 54.5509V54.7106C74.0313 54.7977 74.0644 54.8877 74.0899 54.9804V55.0801V55.1603C73.4477 58.3044 72.2204 61.2965 70.4743 63.9769V64.0271L70.4151 64.1171L70.2966 64.2468L70.2077 64.3367C70.0106 64.5076 69.777 64.631 69.5262 64.6972H69.0321C68.8853 64.6958 68.7392 64.6756 68.5973 64.6373C68.4547 64.5919 68.3189 64.5278 68.1921 64.4469H68.1425L68.0736 64.3967L67.9944 64.3465L67.9951 64.3472C67.4004 63.8535 66.6459 63.6025 65.8782 63.6436C65.1106 63.6841 64.3857 64.0132 63.8461 64.5669C63.2997 65.1177 62.9744 65.8533 62.9331 66.6322C62.891 67.411 63.135 68.1781 63.6187 68.7853V68.855L63.6683 68.915V68.9952L63.7572 69.1549L63.8165 69.3048V69.4749V69.6451V69.8047V69.9749V70.1346V70.2942V70.4539L63.7572 70.6038L63.678 70.7538L63.5794 70.8939L63.4705 71.0236L63.3424 71.1533L63.2735 71.2133L63.2232 71.2746H63.1736H63.1742C60.5579 73.0437 57.6356 74.2987 54.5602 74.9731H53.7209L53.5431 74.9229L53.4246 74.8629L53.3447 74.7332L53.2358 74.6531L53.1076 74.5533L53.0091 74.4634L52.9002 74.3435L52.821 74.2333L52.7321 74.0931L52.6439 73.9732L52.5846 73.8233V73.6036V73.5234V73.4237C52.4689 72.3896 51.8556 71.4796 50.946 70.9937C50.0365 70.5077 48.9484 70.5077 48.0389 70.9937C47.1294 71.4797 46.5161 72.3897 46.4003 73.4237V73.5137V73.6036V73.6936V73.8233C46.3776 73.8881 46.3514 73.9516 46.3218 74.0136L46.2721 74.1133C46.2308 74.1831 46.1846 74.25 46.1336 74.3135V74.3734C45.9944 74.5359 45.827 74.6719 45.6396 74.773H45.5603L45.3529 74.8629H44.2766C41.1772 74.2472 38.2211 73.0431 35.5639 71.3144H35.5143L35.4254 71.2544L35.3565 71.1847L35.2773 70.9748L35.1684 70.8451L35.0795 70.705L35.0003 70.5551L34.941 70.4051C34.941 70.3549 34.941 70.295 34.8914 70.2455C34.8418 70.1953 34.8914 70.1353 34.8914 70.0858V69.9156V69.7455V69.5754V69.4052H34.8921C34.8893 69.3487 34.8893 69.2916 34.8921 69.2351L34.9513 69.0754L35.0699 68.975V68.8948L35.1195 68.8251V68.7554H35.1188C35.7693 67.9416 35.9774 66.8546 35.6748 65.8539C35.3724 64.854 34.5985 64.0709 33.6097 63.7649C32.6209 63.4588 31.5467 63.6693 30.7432 64.3269L30.6639 64.3771L30.595 64.4273C30.3394 64.5883 30.0458 64.6776 29.7454 64.6867H29.2513C29.128 64.6539 29.0088 64.6065 28.8958 64.5472C28.7828 64.4858 28.6767 64.4119 28.5795 64.3269L28.3624 64.1072L28.3521 63.9768V63.9266V63.9273C26.5984 61.279 25.358 58.3176 24.6972 55.1999V55.1198V55.0298V54.9803C24.6938 54.9168 24.6938 54.8534 24.6972 54.7906V54.631V54.6303C24.6945 54.5738 24.6945 54.5173 24.6972 54.4608V54.3011L24.7565 54.1415L24.8357 53.9915L24.9246 53.8514L25.0335 53.7217L25.152 53.6018L25.2802 53.4916L25.4084 53.4016L25.6854 53.281L25.8335 53.221L26.0113 53.1611H26.2683H26.2676C27.2902 53.0439 28.1888 52.4233 28.669 51.5029C29.15 50.5825 29.15 49.4815 28.669 48.5611C28.1887 47.6407 27.2901 47.0201 26.2676 46.9036H26.0106L25.8425 46.8437L25.6854 46.6735L25.5372 46.5934L25.3987 46.4936L25.2802 46.3835L25.1617 46.2635L25.0631 46.1338L24.9343 45.9839L24.855 45.834L24.7958 45.6743V45.5146V45.514C24.793 45.4575 24.793 45.4003 24.7958 45.3438V45.1737C24.7592 45.113 24.7262 45.0496 24.6972 44.984V44.8941V44.8041C25.3367 41.6608 26.5599 38.6687 28.3031 35.9875L28.3623 35.9178L28.4119 35.8376L28.5994 35.6479L28.7179 35.5482L28.866 35.4485L28.9942 35.3788L29.1623 35.309H30.2883L30.4364 35.369L30.6045 35.459H30.6735L30.7424 35.5092L30.8216 35.5594V35.5573C31.6195 36.2002 32.6786 36.4059 33.655 36.1088C34.6321 35.8118 35.4024 35.0496 35.7187 34.0678C36.0343 33.0867 35.8544 32.0109 35.2377 31.1887L35.1585 31.0785L35.0792 30.9788C35.0427 30.9209 35.0103 30.8609 34.9807 30.7989L34.9214 30.6887V30.6894C34.8939 30.6204 34.8704 30.5506 34.8518 30.4788V30.3686V30.3693C34.7933 30.1197 34.7933 29.8589 34.8518 29.6093V29.4894C34.8829 29.3896 34.9228 29.2927 34.9704 29.1993L35.02 29.0996C35.0896 28.9838 35.1729 28.8764 35.2673 28.7795C35.3521 28.7007 35.4444 28.6303 35.5437 28.5696C38.1883 26.8257 41.1397 25.6111 44.2369 24.9911H44.9976L45.2547 25.0713L45.5013 25.201L45.6991 25.3607L45.7584 25.4206L45.9065 25.6005L45.9754 25.7002L46.074 25.8801L46.1332 26.0203V26.021C46.156 26.0796 46.1759 26.1395 46.1925 26.2009V26.2811V26.371V26.461V26.4603C46.3083 27.4951 46.9215 28.4044 47.8311 28.8903C48.7407 29.3762 49.8287 29.3763 50.7382 28.8903C51.6477 28.4043 52.261 27.495 52.3761 26.4603V26.3703V26.2804V26.2002V26.2009C52.3927 26.1395 52.4126 26.0796 52.4354 26.021L52.6531 25.991L52.742 25.8209L52.8213 25.7107L52.9598 25.5406L53.039 25.4708L53.2264 25.3209H53.2857L53.5228 25.1912H53.582L53.8287 25.111H54.5102C57.6096 25.7163 60.5664 26.9143 63.2228 28.6401L63.2821 28.6903L63.3614 28.7405L63.5488 28.9302L63.6576 29.0599L63.7465 29.2L63.8258 29.35L63.885 29.4999L63.9347 29.6595V29.8192V29.9894V30.1595V30.3296V30.4998V30.4991C63.9374 30.5556 63.9374 30.6127 63.9347 30.6692L63.8754 30.8191L63.7169 30.9893V31.1197L63.6576 31.2096V31.2089C63.0058 32.0213 62.7949 33.1077 63.0954 34.1089C63.3958 35.1102 64.1682 35.8947 65.1557 36.2028C66.1439 36.5117 67.2188 36.3032 68.0244 35.6471L68.1036 35.5969L68.1725 35.5467H68.2414L68.3992 35.4665L68.557 35.4065H68.8926L69.1503 35.4072H69.6244L69.7822 35.4769L69.9207 35.5571L70.0688 35.6568L70.197 35.7565L70.3844 35.9462V36.0159L70.4437 36.0857L70.4444 36.0871C72.1836 38.72 73.4198 41.6599 74.0896 44.7537V44.8437V44.9336V44.9838C74.093 45.0438 74.093 45.1038 74.0896 45.1637V45.3339C74.0923 45.3904 74.0923 45.4468 74.0896 45.5033V45.663L74.0303 45.8129L73.951 45.9628L73.8622 46.103L73.7636 46.2327L73.6451 46.3526L73.5266 46.4628L73.3881 46.5625L73.2399 46.6427L73.0821 46.7124L72.914 46.7626H72.657V46.7633C71.6351 46.8805 70.7365 47.501 70.2556 48.4215C69.7753 49.3412 69.7753 50.4429 70.2556 51.3627C70.7366 52.2831 71.6351 52.9037 72.657 53.0209L72.5491 53.111Z" fill="url(#paint0_linear_41_328)"/>
<path d="M65.9781 39.8355C63.8035 39.8292 61.7727 38.7345 60.5545 36.9117C59.3362 35.0883 59.0888 32.7732 59.893 30.7288C58.477 29.9325 56.9755 29.3021 55.4182 28.8497C54.7409 30.4521 53.4681 31.7204 51.8743 32.3814C50.2805 33.0417 48.4937 33.0417 46.9006 32.3814C45.3068 31.7204 44.0341 30.4519 43.3567 28.8497C41.7988 29.3043 40.2972 29.9381 38.8812 30.7386C39.5303 32.3536 39.5221 34.1631 38.8592 35.7716C38.1956 37.381 36.9304 38.6591 35.3402 39.3285C33.7491 39.9979 31.9617 40.0042 30.3665 39.3453C29.5803 40.7824 28.9574 42.3053 28.5095 43.884C30.0889 44.5715 31.3388 45.8586 31.9894 47.4687C32.6406 49.0795 32.6406 50.8841 31.9894 52.4948C31.3389 54.1048 30.089 55.3919 28.5095 56.0795C28.9567 57.6554 29.5796 59.1748 30.3665 60.6077C31.9631 59.9634 33.7449 59.9794 35.3306 60.6509C36.9155 61.3231 38.1772 62.5977 38.8428 64.2016C39.5091 65.8047 39.5263 67.6086 38.8917 69.2249C40.3084 70.0227 41.8092 70.6565 43.3665 71.1139C44.0459 69.5157 45.3178 68.2508 46.909 67.5925C48.5007 66.9336 50.2841 66.9336 51.8758 67.5925C53.4668 68.2507 54.7388 69.5156 55.4183 71.1139C56.9749 70.66 58.4764 70.0296 59.893 69.2348C59.2543 67.6177 59.2694 65.8117 59.9344 64.2059C60.5993 62.6 61.8618 61.3226 63.4487 60.6497C65.0356 59.9767 66.8202 59.9614 68.4183 60.6078C69.2038 59.1742 69.8267 57.6548 70.2752 56.0797C68.6959 55.3921 67.4459 54.105 66.7954 52.4949C66.1442 50.8842 66.1442 49.0795 66.7954 47.4689C67.4458 45.8588 68.6957 44.5717 70.2752 43.8841C69.8239 42.3047 69.1975 40.7826 68.4086 39.3454C67.6368 39.6648 66.812 39.8307 65.9783 39.8356L65.9781 39.8355ZM49.3923 60.6583C46.5941 60.6583 43.9108 59.5335 41.9325 57.5308C39.9534 55.5289 38.8419 52.8136 38.8419 49.982C38.8419 47.1503 39.9534 44.4351 41.9325 42.4331C43.9108 40.4305 46.5941 39.3057 49.3923 39.3057C52.1906 39.3057 54.8738 40.4304 56.8522 42.4331C58.8312 44.4351 59.9427 47.1503 59.9427 49.982C59.94 52.8129 58.8278 55.5267 56.8495 57.528C54.8719 59.5299 52.19 60.6554 49.3925 60.6581L49.3923 60.6583Z" fill="url(#paint1_linear_41_328)"/>
<path d="M56.4965 49.9818C56.4965 53.9514 53.3166 57.1695 49.3936 57.1695C45.4706 57.1695 42.2906 53.9516 42.2906 49.9818C42.2906 46.012 45.4706 42.7941 49.3936 42.7941C53.3166 42.7941 56.4965 46.012 56.4965 49.9818Z" fill="url(#paint2_linear_41_328)"/>
<defs>
<linearGradient id="paint0_linear_41_328" x1="168.759" y1="151.612" x2="-7.21147" y2="23.6515" gradientUnits="userSpaceOnUse">
<stop stop-color="#FE9A96"/>
<stop offset="1" stop-color="#FFDA91"/>
</linearGradient>
<linearGradient id="paint1_linear_41_328" x1="99.8593" y1="92.9504" x2="25.4603" y2="38.8497" gradientUnits="userSpaceOnUse">
<stop stop-color="#FE9A96"/>
<stop offset="1" stop-color="#FFDA91"/>
</linearGradient>
<linearGradient id="paint2_linear_41_328" x1="66.5591" y1="64.5969" x2="41.2535" y2="46.1953" gradientUnits="userSpaceOnUse">
<stop stop-color="#FE9A96"/>
<stop offset="1" stop-color="#FFDA91"/>
</linearGradient>
</defs>
</svg>
