<svg width="100" height="100" viewBox="0 0 100 100" fill="none" xmlns="http://www.w3.org/2000/svg">
<rect x="21.5623" y="21.2944" width="56.6514" height="57.4549" fill="#F7FEFE"/>
<path d="M50 0C36.739 0 24.0216 5.26782 14.6449 14.6449C5.26782 24.0213 0 36.7394 0 50C0 63.2606 5.26782 75.9784 14.6449 85.3551C24.0213 94.7322 36.7394 100 50 100C63.2606 100 75.9784 94.7322 85.3551 85.3551C94.7322 75.9787 100 63.2606 100 50C100 36.7394 94.7322 24.0216 85.3551 14.6449C75.9787 5.26782 63.2606 0 50 0ZM73.4409 53.13H73.7011L73.8713 53.1802L74.0213 53.25L74.1712 53.3302L74.3114 53.4299L74.4314 53.5401L74.5514 53.6601L74.6511 53.7898L74.7509 53.9301L74.8311 54.08L74.9008 54.2398V54.3995V54.4002C74.9036 54.4567 74.9036 54.5132 74.9008 54.5704V54.7301C74.9413 54.8173 74.9748 54.9073 75.0006 55.0001V55.0998V55.18C74.3505 58.3252 73.1081 61.3184 71.3406 63.9998V64.05L71.2806 64.14L71.1607 64.2697L71.0707 64.3597C70.8712 64.5306 70.6347 64.6541 70.3808 64.7204H69.8807C69.7321 64.719 69.5842 64.6987 69.4405 64.6604C69.2961 64.615 69.1587 64.5509 69.0304 64.4699H68.9801L68.9104 64.4197L68.8302 64.3695L68.8309 64.3702C68.2289 63.8763 67.4651 63.6252 66.688 63.6664C65.911 63.7068 65.1772 64.0361 64.6309 64.5899C64.0777 65.141 63.7485 65.8769 63.7067 66.656C63.6641 67.4351 63.911 68.2024 64.4007 68.8099V68.8796L64.4509 68.9396V69.0198L64.5409 69.1796L64.6009 69.3296V69.4998V69.6699V69.8297V69.9999V70.1596V70.3194V70.4791L64.5409 70.6291L64.4607 70.779L64.3609 70.9192L64.2507 71.049L64.121 71.1787L64.0512 71.2387L64.0003 71.3001H63.9501H63.9508C61.3022 73.0698 58.344 74.3253 55.2309 74.9999H54.3812L54.2013 74.9497L54.0813 74.8897L54.0004 74.7599L53.8902 74.6797L53.7604 74.58L53.6607 74.49L53.5505 74.37L53.4703 74.2598L53.3803 74.1196L53.291 73.9996L53.231 73.8497V73.6299V73.5497V73.45C53.1138 72.4155 52.493 71.5051 51.5723 71.0191C50.6515 70.5329 49.5501 70.5329 48.6294 71.0191C47.7087 71.5053 47.0879 72.4156 46.9707 73.45V73.5399V73.6299V73.7199V73.8496C46.9476 73.9145 46.9211 73.978 46.8911 74.0401L46.8409 74.1398C46.7991 74.2096 46.7523 74.2765 46.7007 74.34V74.4C46.5598 74.5625 46.3903 74.6986 46.2006 74.7997H46.1204L45.9104 74.8897H44.8208C41.6834 74.2738 38.6909 73.0692 36.0011 71.3399H35.9508L35.8609 71.2799L35.7911 71.2101L35.7109 71.0002L35.6007 70.8704L35.5107 70.7302L35.4305 70.5803L35.3705 70.4303C35.3705 70.3801 35.3705 70.3201 35.3203 70.2706C35.27 70.2203 35.3203 70.1603 35.3203 70.1108V69.9406V69.7704V69.6002V69.43H35.321C35.3182 69.3735 35.3182 69.3163 35.321 69.2598L35.381 69.1001L35.5009 68.9996V68.9194L35.5512 68.8497V68.7799H35.5505C36.2089 67.9659 36.4196 66.8785 36.1134 65.8774C35.8072 64.8772 35.0238 64.0938 34.0228 63.7876C33.0219 63.4814 31.9345 63.6921 31.1211 64.3498L31.0409 64.4001L30.9711 64.4503C30.7123 64.6114 30.4152 64.7007 30.111 64.7098H29.6109C29.486 64.677 29.3654 64.6296 29.251 64.5703C29.1366 64.5089 29.0292 64.4349 28.9308 64.3498L28.7111 64.1301L28.7006 63.9997V63.9494V63.9501C26.9254 61.3009 25.6697 58.3384 25.0008 55.2197V55.1395V55.0495V54.9999C24.9973 54.9365 24.9973 54.873 25.0008 54.8102V54.6505V54.6498C24.998 54.5933 24.998 54.5368 25.0008 54.4803V54.3205L25.0608 54.1608L25.141 54.0108L25.231 53.8706L25.3412 53.7409L25.4612 53.6209L25.5909 53.5107L25.7207 53.4207L26.0011 53.3L26.1511 53.24L26.331 53.1801H26.5912H26.5905C27.6257 53.0629 28.5353 52.4421 29.0214 51.5213C29.5083 50.6006 29.5083 49.4992 29.0214 48.5785C28.5352 47.6577 27.6256 47.0369 26.5905 46.9204H26.3303L26.1601 46.8604L26.0011 46.6902L25.8511 46.61L25.7109 46.5103L25.5909 46.4L25.471 46.2801L25.3712 46.1503L25.2408 46.0004L25.1605 45.8504L25.1006 45.6906V45.5309V45.5302C25.0978 45.4737 25.0978 45.4165 25.1006 45.36V45.1898C25.0636 45.1291 25.0301 45.0657 25.0008 45.0001V44.9101V44.8201C25.6481 41.6757 26.8863 38.6825 28.651 36.0004L28.711 35.9306L28.7612 35.8504L28.9509 35.6607L29.0709 35.5609L29.2209 35.4612L29.3506 35.3914L29.5208 35.3217H30.6606L30.8105 35.3816L30.9807 35.4716H31.0505L31.1203 35.5219L31.2005 35.5721V35.57C32.0082 36.2131 33.0803 36.4189 34.0687 36.1217C35.0578 35.8246 35.8376 35.0622 36.1578 34.08C36.4772 33.0985 36.2952 32.0223 35.6709 31.1998L35.5907 31.0896L35.5104 30.9898C35.4735 30.9319 35.4407 30.872 35.4107 30.8099L35.3507 30.6997V30.7004C35.3228 30.6313 35.2991 30.5616 35.2802 30.4897V30.3795V30.3802C35.221 30.1305 35.221 29.8696 35.2802 29.6199V29.4999C35.3116 29.4001 35.3521 29.3032 35.4002 29.2097L35.4504 29.11C35.5209 28.9942 35.6053 28.8868 35.7009 28.7898C35.7866 28.711 35.8801 28.6405 35.9806 28.5798C38.6577 26.8353 41.6453 25.6202 44.7807 25H45.5508L45.8109 25.0803L46.0607 25.21L46.2609 25.3697L46.3208 25.4297L46.4708 25.6097L46.5406 25.7094L46.6403 25.8894L46.7003 26.0296V26.0303C46.7233 26.0889 46.7435 26.1489 46.7603 26.2103V26.2905V26.3805V26.4704V26.4697C46.8775 27.5049 47.4983 28.4146 48.419 28.9006C49.3398 29.3867 50.4412 29.3868 51.3619 28.9006C52.2826 28.4144 52.9034 27.5048 53.0199 26.4697V26.3798V26.2898V26.2096V26.2103C53.0367 26.1489 53.0569 26.0889 53.0799 26.0303L53.3004 26.0003L53.3903 25.8301L53.4706 25.7199L53.6108 25.5497L53.691 25.4799L53.8807 25.33H53.9407L54.1807 25.2002H54.2407L54.4904 25.12H55.1802C58.3177 25.7255 61.3109 26.9239 64 28.6503L64.06 28.7006L64.1402 28.7508L64.3299 28.9405L64.4401 29.0703L64.5301 29.2105L64.6103 29.3604L64.6703 29.5104L64.7206 29.6701V29.8299V30.0001V30.1703V30.3405V30.5107V30.51C64.7233 30.5665 64.7233 30.6237 64.7206 30.6802L64.6606 30.8301L64.5001 31.0003V31.1308L64.4401 31.2208V31.2201C63.7803 32.0327 63.5668 33.1195 63.8709 34.1211C64.1751 35.1227 64.957 35.9075 65.9566 36.2158C66.9569 36.5248 68.045 36.3162 68.8605 35.6598L68.9408 35.6096L69.0105 35.5594H69.0803L69.24 35.4791L69.3997 35.4192H69.7394L70.0003 35.4199H70.4802L70.64 35.4896L70.7802 35.5698L70.9301 35.6696L71.0599 35.7693L71.2496 35.9591V36.0288L71.3096 36.0986L71.3103 36.1C73.0709 38.7339 74.3222 41.6747 75.0003 44.7697V44.8597V44.9497V44.9999C75.0038 45.0599 75.0038 45.1199 75.0003 45.1799V45.3501C75.0031 45.4066 75.0031 45.4631 75.0003 45.5196V45.6793L74.9403 45.8293L74.8601 45.9792L74.7701 46.1195L74.6703 46.2492L74.5504 46.3692L74.4304 46.4794L74.2902 46.5791L74.1402 46.6593L73.9805 46.7291L73.8103 46.7793H73.5501V46.78C72.5156 46.8972 71.606 47.518 71.1192 48.4388C70.633 49.3588 70.633 50.4609 71.1192 51.3811C71.6061 52.3018 72.5157 52.9226 73.5501 53.0398L73.4409 53.13Z" fill="url(#paint0_linear_41_328)"/>
<path d="M66.7892 39.8496C64.5878 39.8433 62.5321 38.7482 61.2989 36.9248C60.0656 35.1007 59.8152 32.7848 60.6292 30.7397C59.1958 29.9431 57.6758 29.3125 56.0994 28.8599C55.4138 30.4628 54.1253 31.7316 52.512 32.3929C50.8985 33.0534 49.0898 33.0534 47.4772 32.3929C45.8638 31.7316 44.5754 30.4627 43.8897 28.8599C42.3126 29.3147 40.7926 29.9487 39.3592 30.7495C40.0163 32.365 40.0079 34.1752 39.3369 35.7843C38.6651 37.3942 37.3844 38.6728 35.7746 39.3425C34.164 40.0121 32.3546 40.0184 30.7398 39.3592C29.9439 40.7968 29.3133 42.3203 28.86 43.8995C30.4587 44.5873 31.7241 45.8749 32.3826 47.4856C33.0418 49.0969 33.0418 50.9022 32.3826 52.5134C31.7242 54.124 30.4589 55.4116 28.86 56.0994C29.3127 57.6759 29.9433 59.1959 30.7398 60.6292C32.356 59.9847 34.1598 60.0008 35.7649 60.6725C37.3693 61.3449 38.6465 62.62 39.3203 64.2244C39.9948 65.8281 40.0122 67.6326 39.3698 69.2496C40.8039 70.0476 42.3232 70.6816 43.8996 71.1392C44.5874 69.5404 45.8749 68.2751 47.4856 67.6165C49.0969 66.9574 50.9022 66.9574 52.5134 67.6165C54.1241 68.275 55.4116 69.5403 56.0995 71.1392C57.6752 70.6851 59.1952 70.0545 60.6293 69.2594C59.9827 67.6418 59.998 65.8351 60.6711 64.2287C61.3443 62.6223 62.6222 61.3444 64.2286 60.6712C65.835 59.998 67.6416 59.9828 69.2593 60.6294C70.0545 59.1952 70.6851 57.6753 71.1391 56.0996C69.5403 55.4118 68.275 54.1242 67.6164 52.5135C66.9573 50.9022 66.9573 49.097 67.6164 47.4857C68.2749 45.8751 69.5402 44.5875 71.1391 43.8997C70.6822 42.3197 70.0481 40.797 69.2495 39.3594C68.4682 39.6788 67.6333 39.8448 66.7893 39.8497L66.7892 39.8496ZM49.9995 60.6798C47.1668 60.6798 44.4506 59.5547 42.4479 57.5513C40.4445 55.5486 39.3194 52.8324 39.3194 49.9997C39.3194 47.1671 40.4445 44.4508 42.4479 42.4482C44.4506 40.4448 47.1668 39.3196 49.9995 39.3196C52.8321 39.3196 55.5484 40.4447 57.551 42.4482C59.5544 44.4508 60.6796 47.1671 60.6796 49.9997C60.6768 52.8317 59.551 55.5465 57.5483 57.5484C55.5464 59.5511 52.8316 60.677 49.9997 60.6796L49.9995 60.6798Z" fill="url(#paint1_linear_41_328)"/>
<path d="M57.191 49.9996C57.191 53.9707 53.9719 57.1899 50.0007 57.1899C46.0295 57.1899 42.8104 53.9709 42.8104 49.9996C42.8104 46.0284 46.0295 42.8093 50.0007 42.8093C53.9719 42.8093 57.191 46.0284 57.191 49.9996Z" fill="url(#paint2_linear_41_328)"/>
<defs>
<linearGradient id="paint0_linear_41_328" x1="170.833" y1="151.667" x2="-5.83335" y2="21.6667" gradientUnits="userSpaceOnUse">
<stop stop-color="#FE9A96"/>
<stop offset="1" stop-color="#FFDA91"/>
</linearGradient>
<linearGradient id="paint1_linear_41_328" x1="101.087" y1="92.9835" x2="26.3934" y2="38.0207" gradientUnits="userSpaceOnUse">
<stop stop-color="#FE9A96"/>
<stop offset="1" stop-color="#FFDA91"/>
</linearGradient>
<linearGradient id="paint2_linear_41_328" x1="67.3773" y1="64.6199" x2="41.9716" y2="45.9251" gradientUnits="userSpaceOnUse">
<stop stop-color="#FE9A96"/>
<stop offset="1" stop-color="#FFDA91"/>
</linearGradient>
</defs>
</svg>
