<svg width="45" height="48" viewBox="0 0 46 49" fill="none" xmlns="http://www.w3.org/2000/svg">
<path fill-rule="evenodd" clip-rule="evenodd" d="M32.3916 32.4783C35.8554 29.0366 38 24.2688 38 19C38 8.50659 29.4934 0 19 0C8.50661 0 0 8.50659 0 19C0 29.4934 8.50661 38 19 38C22.7537 38 26.2532 36.9115 29.2 35.0328L42.4719 48.391C43.2627 49.1869 44.5635 49.205 45.3773 48.4316C46.191 47.6581 46.2097 46.386 45.4189 45.5901L32.3916 32.4783ZM19 34.7047C10.3265 34.7047 3.29529 27.6735 3.29529 19C3.29529 10.3265 10.3265 3.29529 19 3.29529C27.6735 3.29529 34.7047 10.3265 34.7047 19C34.7047 27.6735 27.6735 34.7047 19 34.7047Z" fill="#27262D"/>
</svg>
