<svg width="100" height="100" viewBox="0 0 100 100" fill="none" xmlns="http://www.w3.org/2000/svg">
<path d="M18 22H84V80H18V22Z" fill="#F7FEFE"/>
<path d="M50.4393 57.8085C49.9824 57.8099 49.5409 57.6425 49.1991 57.3391L26.1992 36.8892V65.4086H73.7685V36.9981L51.699 57.3176C51.3552 57.6329 50.9059 57.808 50.4393 57.8073V57.8085Z" fill="url(#paint0_linear_41_339)"/>
<path d="M70.8606 34.589H29.2609L50.4107 53.4282L70.8606 34.589Z" fill="url(#paint1_linear_41_339)"/>
<path d="M50 0C36.739 0 24.0216 5.26782 14.6449 14.6449C5.26782 24.0213 0 36.7394 0 50C0 63.2606 5.26782 75.9784 14.6449 85.3551C24.0213 94.7322 36.7394 100 50 100C63.2606 100 75.9784 94.7322 85.3551 85.3551C94.7322 75.9787 100 63.2606 100 50C100 36.7394 94.7322 24.0216 85.3551 14.6449C75.9787 5.26782 63.2606 0 50 0ZM77.4998 67.2692C77.4998 68.2966 76.6669 69.1295 75.6402 69.1295H24.3602C23.3334 69.1295 22.5006 68.2966 22.5006 67.2692V32.6199C22.4971 32.5536 22.4971 32.4867 22.5006 32.4197V32.2495C22.5145 32.1881 22.5305 32.1288 22.5508 32.0703L22.631 31.9001L22.7112 31.7501L22.8312 31.5799L22.8912 31.4899L23.0411 31.3497L23.1709 31.2499L23.3306 31.1502L23.6006 31.0002L23.7708 30.9402L23.9507 30.8803H76.0396L76.2398 30.9402H76.3801L76.5502 31.0302L76.7002 31.1202L76.83 31.2304L76.9799 31.3706L77.0602 31.4704L77.1801 31.6301L77.2701 31.7898L77.3503 31.9496C77.3733 32.0082 77.3929 32.0689 77.4096 32.1302V32.29C77.4138 32.3597 77.4138 32.4302 77.4096 32.4999V32.6199L77.4998 67.2692Z" fill="url(#paint2_linear_41_339)"/>
<defs>
<linearGradient id="paint0_linear_41_339" x1="170.833" y1="151.667" x2="-5.83335" y2="21.6667" gradientUnits="userSpaceOnUse">
<stop stop-color="#FE9A96"/>
<stop offset="1" stop-color="#FFDA91"/>
</linearGradient>
<linearGradient id="paint1_linear_41_339" x1="170.833" y1="151.667" x2="-5.83335" y2="21.6667" gradientUnits="userSpaceOnUse">
<stop stop-color="#FE9A96"/>
<stop offset="1" stop-color="#FFDA91"/>
</linearGradient>
<linearGradient id="paint2_linear_41_339" x1="170.833" y1="151.667" x2="-5.83335" y2="21.6667" gradientUnits="userSpaceOnUse">
<stop stop-color="#FE9A96"/>
<stop offset="1" stop-color="#FFDA91"/>
</linearGradient>
</defs>
</svg>
