<svg width="99" height="100" viewBox="0 0 99 100" fill="none" xmlns="http://www.w3.org/2000/svg">
<rect x="17.1119" y="31.3279" width="68.2675" height="51.1421" fill="#F7FEFE"/>
<path d="M49.4379 0C36.3379 0 23.7749 5.26594 14.5121 14.6397C5.24887 24.0127 0.0450134 36.7263 0.0450134 49.9821C0.0450134 63.238 5.24887 75.9512 14.5121 85.3246C23.7746 94.6983 36.3383 99.9643 49.4379 99.9643C62.5375 99.9643 75.1008 94.6983 84.3637 85.3246C93.6269 75.9516 98.8307 63.238 98.8307 49.9821C98.8307 36.7263 93.6269 24.013 84.3637 14.6397C75.1012 5.26594 62.5375 0 49.4379 0ZM70.4103 38.1861L44.4192 64.4765L44.3207 64.6062V64.6069C43.9521 64.982 43.4511 65.194 42.9281 65.1961C42.4044 65.194 41.9035 64.982 41.5348 64.6069L41.4363 64.4772L28.466 51.3911C27.6935 50.6101 27.6935 49.3438 28.466 48.5621C29.2377 47.7811 30.4891 47.7811 31.2616 48.5621L42.9082 60.3582L67.6044 35.3673C68.3762 34.5856 69.6283 34.5856 70.4 35.3673C71.1718 36.1482 71.1718 37.4153 70.4 38.1962L70.4103 38.1861Z" fill="#7DCBA4"/>
</svg>
