<svg width="100" height="100" viewBox="0 0 100 100" fill="none" xmlns="http://www.w3.org/2000/svg">
<rect x="17.2767" y="31.3391" width="69.1066" height="51.1603" fill="#F7FEFE"/>
<path d="M50 0C36.739 0 24.0216 5.26782 14.6449 14.6449C5.26782 24.0213 0 36.7394 0 50C0 63.2606 5.26782 75.9784 14.6449 85.3551C24.0213 94.7322 36.7394 100 50 100C63.2606 100 75.9784 94.7322 85.3551 85.3551C94.7322 75.9787 100 63.2606 100 50C100 36.7394 94.7322 24.0216 85.3551 14.6449C75.9787 5.26782 63.2606 0 50 0ZM71.2302 38.1997L44.9197 64.4995L44.8199 64.6293V64.63C44.4468 65.0053 43.9396 65.2173 43.4102 65.2194C42.8801 65.2173 42.373 65.0053 41.9998 64.63L41.9 64.5002L28.7703 51.4094C27.9884 50.6282 27.9884 49.3614 28.7703 48.5795C29.5516 47.7982 30.8183 47.7982 31.6003 48.5795L43.39 60.3797L68.3898 35.3799C69.1711 34.598 70.4386 34.598 71.2198 35.3799C72.0011 36.1612 72.0011 37.4286 71.2198 38.2099L71.2302 38.1997Z" fill="#7DCBA4"/>
</svg>
